<?xml version="1.0" encoding="UTF-8"?>
<svg xmlns="http://www.w3.org/2000/svg" xmlns:xlink="http://www.w3.org/1999/xlink" width="50px" height="50px" viewBox="0 0 50 50" version="1.1">
<g id="surface1">
<path style=" stroke:none;fill-rule:nonzero;fill:rgb(49.411765%,83.921569%,24.313725%);fill-opacity:1;" d="M 20.957031 22.914062 C 21.59375 22.914062 22.1875 22.882812 22.726562 22.839844 L 22.726562 27.082031 C 23.46875 26.957031 24.230469 26.894531 25 26.894531 C 25.769531 26.894531 26.53125 26.957031 27.273438 27.082031 L 27.273438 20.46875 C 27.636719 18.753906 29.054688 10.34375 23.394531 4.683594 C 19.835938 1.125 15.179688 0.378906 11.902344 0.378906 C 9.300781 0.378906 7.386719 0.851562 7.308594 0.871094 C 6.386719 1.101562 5.703125 1.878906 5.597656 2.824219 C 5.585938 2.929688 5.308594 5.5 5.59375 8.636719 C 6 13.089844 7.300781 16.445312 9.464844 18.609375 C 13.023438 22.164062 17.675781 22.914062 20.957031 22.914062 Z M 20.957031 22.914062 "/>
<path style=" stroke:none;fill-rule:nonzero;fill:rgb(65.490196%,53.72549%,40%);fill-opacity:1;" d="M 36.816406 33.71875 C 34.78125 30.183594 31.269531 27.757812 27.273438 27.082031 C 26.53125 26.957031 25.769531 26.894531 25 26.894531 C 24.230469 26.894531 23.46875 26.957031 22.726562 27.082031 C 18.730469 27.757812 15.21875 30.183594 13.183594 33.71875 C 5.875 33.960938 0 39.980469 0 47.347656 C 0 48.605469 1.015625 49.621094 2.273438 49.621094 L 47.726562 49.621094 C 48.984375 49.621094 50 48.605469 50 47.347656 C 50 39.980469 44.125 33.960938 36.816406 33.71875 Z M 36.816406 33.71875 "/>
<path style=" stroke:none;fill-rule:nonzero;fill:rgb(50.196078%,40.392157%,28.627451%);fill-opacity:1;" d="M 22.726562 27.082031 C 18.730469 27.757812 15.21875 30.183594 13.183594 33.71875 C 5.875 33.960938 0 39.980469 0 47.347656 C 0 48.605469 1.015625 49.621094 2.273438 49.621094 L 25 49.621094 L 25 26.894531 C 24.230469 26.894531 23.46875 26.957031 22.726562 27.082031 Z M 22.726562 27.082031 "/>
</g>
</svg>
