<?xml version="1.0" encoding="UTF-8"?>
<svg xmlns="http://www.w3.org/2000/svg" xmlns:xlink="http://www.w3.org/1999/xlink" width="40px" height="40px" viewBox="0 0 40 40" version="1.1">
<g id="surface1">
<path style="fill-rule:nonzero;fill:rgb(100%,100%,100%);fill-opacity:1;stroke-width:1;stroke-linecap:butt;stroke-linejoin:miter;stroke:rgb(0%,0%,0%);stroke-opacity:1;stroke-miterlimit:4;" d="M 691.6 231.4 L 655 231.4 C 644.1 231.4 635.2 222.5 635.2 211.6 C 635.2 200.7 644.1 191.8 655 191.8 L 691.6 191.8 C 702.5 191.8 711.4 200.7 711.4 211.6 C 711.4 222.5 702.5 231.4 691.6 231.4 Z M 691.6 305.7 L 655 305.7 C 644.1 305.7 635.2 296.8 635.2 285.9 C 635.2 275 644.1 266.1 655 266.1 L 691.6 266.1 C 702.5 266.1 711.4 275 711.4 285.9 C 711.4 296.8 702.5 305.7 691.6 305.7 Z M 691.6 380 L 655 380 C 644.1 380 635.2 371.1 635.2 360.2 C 635.2 349.3 644.1 340.4 655 340.4 L 691.6 340.4 C 702.5 340.4 711.4 349.3 711.4 360.2 C 711.4 371 702.5 380 691.6 380 Z M 691.6 380 " transform="matrix(0.0390625,0,0,0.0390625,0,0)"/>
<path style="fill-rule:nonzero;fill:rgb(100%,100%,100%);fill-opacity:1;stroke-width:1;stroke-linecap:butt;stroke-linejoin:miter;stroke:rgb(0%,0%,0%);stroke-opacity:1;stroke-miterlimit:4;" d="M 603.3 589.7 L 603.3 159.5 C 603.3 107.6 561.1 65.4 509.2 65.4 C 457.3 65.4 415.1 107.6 415.1 159.5 L 415.1 589.7 C 354.1 623.1 312.7 687.9 312.7 762.2 C 312.7 870.6 400.9 958.7 509.2 958.7 C 617.5 958.7 705.7 870.5 705.7 762.2 C 705.7 687.9 664.2 623.1 603.3 589.7 Z M 509.1 917.4 C 423.5 917.4 353.8 847.7 353.8 762.1 C 353.8 711.8 377.8 667.1 415 638.7 C 427.4 629.2 441.3 621.5 456.2 616.1 L 456.2 159.5 C 456.2 130.3 479.9 106.6 509.1 106.6 C 538.3 106.6 562 130.3 562 159.5 L 562 616.1 C 576.9 621.5 590.8 629.2 603.2 638.7 C 640.3 667.1 664.4 711.8 664.4 762.1 C 664.4 847.8 594.8 917.4 509.1 917.4 Z M 509.1 917.4 " transform="matrix(0.0390625,0,0,0.0390625,0,0)"/>
<path style="fill-rule:nonzero;fill:rgb(0%,70.196078%,41.568627%);fill-opacity:1;stroke-width:1;stroke-linecap:butt;stroke-linejoin:miter;stroke:rgb(0%,0%,0%);stroke-opacity:1;stroke-miterlimit:4;" d="M 426.1 766.5 C 426.1 812.5 463.4 849.8 509.4 849.8 C 555.4 849.8 592.7 812.5 592.7 766.5 C 592.7 720.5 555.4 683.2 509.4 683.2 C 463.4 683.2 426.1 720.5 426.1 766.5 Z M 426.1 766.5 " transform="matrix(0.0390625,0,0,0.0390625,0,0)"/>
<path style="fill-rule:nonzero;fill:rgb(100%,100%,100%);fill-opacity:1;stroke-width:1;stroke-linecap:butt;stroke-linejoin:miter;stroke:rgb(0%,0%,0%);stroke-opacity:1;stroke-miterlimit:4;" d="M 613.3 767.2 C 603.8 765.4 594.6 770.9 591.6 779.9 C 585.2 819.5 550.8 849.8 509.4 849.8 C 463.4 849.8 426.1 812.5 426.1 766.5 C 426.1 720.5 463.4 683.2 509.4 683.2 C 516.1 683.2 522.6 684 528.8 685.5 C 528.9 684.7 529 683.9 529 683.2 L 529 207.7 C 529 197.2 520.4 188.7 510 188.7 C 499.5 188.7 491 197.3 491 207.7 L 491 647.8 C 490.1 647.8 489.1 647.9 488.2 648.1 C 439.2 657.2 401.4 694.7 391.9 743.6 C 379.2 808.8 422 872.2 487.2 884.8 C 494.9 886.3 502.6 887 510.2 887 C 566.7 887 617.3 847 628.4 789.5 C 630.3 779.2 623.6 769.2 613.3 767.2 Z M 613.3 767.2 " transform="matrix(0.0390625,0,0,0.0390625,0,0)"/>
</g>
</svg>
